<svg xmlns="http://www.w3.org/2000/svg" xmlns:xlink="http://www.w3.org/1999/xlink" width="200" zoomAndPan="magnify" viewBox="0 0 150 149.999998" height="200" preserveAspectRatio="xMidYMid meet" version="1.0"><defs><clipPath id="89e670e148"><path d="M 0 20.53125 L 150 20.53125 L 150 81 L 0 81 Z M 0 20.53125 " clip-rule="nonzero"/></clipPath><clipPath id="a8d664bce3"><path d="M 0 50 L 150 50 L 150 129.28125 L 0 129.28125 Z M 0 50 " clip-rule="nonzero"/></clipPath></defs><g clip-path="url(#89e670e148)"><path fill="#6bb331" d="M 75 80.625 L 149.527344 34.761719 C 149.320312 33.765625 149.03125 32.792969 148.660156 31.84375 C 148.285156 30.898438 147.835938 29.988281 147.308594 29.117188 C 146.78125 28.25 146.179688 27.429688 145.511719 26.660156 C 144.84375 25.894531 144.117188 25.1875 143.328125 24.542969 C 142.539062 23.902344 141.699219 23.328125 140.8125 22.828125 C 139.925781 22.332031 139.003906 21.910156 138.042969 21.566406 C 137.085938 21.226562 136.105469 20.96875 135.101562 20.792969 C 134.097656 20.621094 133.085938 20.53125 132.070312 20.53125 L 17.929688 20.53125 C 16.914062 20.53125 15.902344 20.621094 14.898438 20.792969 C 13.894531 20.96875 12.914062 21.226562 11.957031 21.566406 C 10.996094 21.910156 10.074219 22.332031 9.1875 22.828125 C 8.300781 23.328125 7.460938 23.902344 6.671875 24.542969 C 5.882812 25.1875 5.15625 25.894531 4.488281 26.660156 C 3.820312 27.429688 3.21875 28.25 2.691406 29.117188 C 2.164062 29.988281 1.714844 30.898438 1.339844 31.84375 C 0.96875 32.792969 0.679688 33.765625 0.472656 34.761719 Z M 75 80.625 " fill-opacity="1" fill-rule="nonzero"/></g><g clip-path="url(#a8d664bce3)"><path fill="#6bb331" d="M 78.566406 94.417969 C 78.03125 94.75 77.460938 95 76.855469 95.171875 C 76.246094 95.34375 75.628906 95.425781 75 95.425781 C 74.371094 95.425781 73.753906 95.34375 73.144531 95.171875 C 72.539062 95 71.96875 94.75 71.433594 94.417969 L 0.105469 50.488281 L 0.105469 111.609375 C 0.105469 112.195312 0.132812 112.777344 0.1875 113.359375 C 0.246094 113.941406 0.332031 114.519531 0.445312 115.089844 C 0.558594 115.664062 0.699219 116.230469 0.867188 116.789062 C 1.035156 117.347656 1.234375 117.898438 1.457031 118.4375 C 1.679688 118.980469 1.929688 119.507812 2.203125 120.023438 C 2.476562 120.539062 2.777344 121.039062 3.101562 121.527344 C 3.425781 122.011719 3.773438 122.480469 4.144531 122.933594 C 4.515625 123.386719 4.90625 123.816406 5.316406 124.230469 C 5.730469 124.644531 6.164062 125.039062 6.613281 125.410156 C 7.066406 125.78125 7.535156 126.128906 8.019531 126.453125 C 8.503906 126.777344 9.007812 127.078125 9.519531 127.355469 C 10.035156 127.632812 10.5625 127.882812 11.101562 128.105469 C 11.644531 128.328125 12.191406 128.527344 12.75 128.695312 C 13.3125 128.867188 13.875 129.007812 14.449219 129.125 C 15.023438 129.238281 15.601562 129.324219 16.179688 129.382812 C 16.761719 129.4375 17.347656 129.46875 17.929688 129.46875 L 132.070312 129.46875 C 132.652344 129.46875 133.234375 129.4375 133.816406 129.382812 C 134.398438 129.324219 134.972656 129.238281 135.546875 129.125 C 136.117188 129.011719 136.683594 128.867188 137.242188 128.699219 C 137.800781 128.527344 138.351562 128.332031 138.890625 128.109375 C 139.429688 127.882812 139.953125 127.636719 140.46875 127.359375 C 140.984375 127.085938 141.484375 126.785156 141.96875 126.460938 C 142.453125 126.136719 142.921875 125.789062 143.375 125.417969 C 143.824219 125.046875 144.257812 124.65625 144.667969 124.242188 C 145.082031 123.832031 145.472656 123.398438 145.84375 122.949219 C 146.214844 122.496094 146.5625 122.027344 146.886719 121.542969 C 147.210938 121.058594 147.511719 120.558594 147.785156 120.042969 C 148.0625 119.527344 148.308594 119.003906 148.535156 118.464844 C 148.757812 117.925781 148.953125 117.375 149.125 116.816406 C 149.292969 116.257812 149.4375 115.691406 149.550781 115.121094 C 149.664062 114.546875 149.75 113.972656 149.808594 113.390625 C 149.863281 112.808594 149.894531 112.226562 149.894531 111.644531 L 149.894531 50.488281 Z M 78.566406 94.417969 " fill-opacity="1" fill-rule="nonzero"/></g></svg>