<svg xmlns="http://www.w3.org/2000/svg" xmlns:xlink="http://www.w3.org/1999/xlink" width="200" zoomAndPan="magnify" viewBox="0 0 150 149.999998" height="200" preserveAspectRatio="xMidYMid meet" version="1.0"><path fill="#6bb331" d="M 150.019531 75.011719 C 150.019531 33.582031 116.4375 0 75.011719 0 C 33.589844 0 0 33.582031 0 75.011719 C 0 110.191406 24.214844 139.710938 56.890625 147.820312 L 56.890625 97.9375 L 41.417969 97.9375 L 41.417969 75.011719 L 56.890625 75.011719 L 56.890625 65.136719 C 56.890625 39.605469 68.441406 27.773438 93.507812 27.773438 C 98.261719 27.773438 106.460938 28.699219 109.8125 29.636719 L 109.8125 50.414062 C 108.042969 50.222656 104.964844 50.128906 101.148438 50.128906 C 88.847656 50.128906 84.09375 54.789062 84.09375 66.902344 L 84.09375 75.007812 L 108.59375 75.007812 L 104.386719 97.929688 L 84.09375 97.929688 L 84.09375 149.46875 C 121.238281 144.984375 150.019531 113.355469 150.019531 75.007812 Z M 150.019531 75.011719 " fill-opacity="1" fill-rule="nonzero"/><path fill="#ffffff" d="M 104.394531 97.929688 L 108.601562 75.007812 L 84.101562 75.007812 L 84.101562 66.902344 C 84.101562 54.789062 88.855469 50.128906 101.15625 50.128906 C 104.972656 50.128906 108.050781 50.222656 109.820312 50.414062 L 109.820312 29.636719 C 106.46875 28.707031 98.265625 27.773438 93.515625 27.773438 C 68.449219 27.773438 56.894531 39.605469 56.894531 65.136719 L 56.894531 75.011719 L 41.425781 75.011719 L 41.425781 97.9375 L 56.894531 97.9375 L 56.894531 147.820312 C 62.699219 149.257812 68.765625 150.027344 75.019531 150.027344 C 78.097656 150.027344 81.125 149.839844 84.109375 149.476562 L 84.109375 97.9375 L 104.402344 97.9375 Z M 104.394531 97.929688 " fill-opacity="1" fill-rule="nonzero"/></svg>